<svg width="42" height="41" viewBox="0 0 42 41" fill="none" xmlns="http://www.w3.org/2000/svg">
<rect x="0.5" y="0.519775" width="41" height="39.0018" rx="19.5009" stroke="#5C85FF"/>
<path fill-rule="evenodd" clip-rule="evenodd" d="M23.1334 28.1873C22.7927 28.1873 22.4544 28.0392 22.2234 27.7522L16.5907 20.7522C16.243 20.3193 16.2477 19.701 16.6035 19.274L22.4369 12.274C22.8487 11.7793 23.5849 11.7128 24.0807 12.1247C24.5754 12.5365 24.6419 13.2727 24.2289 13.7673L19.008 20.0335L24.0422 26.2892C24.4459 26.7908 24.3665 27.5258 23.8637 27.9295C23.649 28.1033 23.39 28.1873 23.1334 28.1873Z" fill="#231F20"/>
<mask id="mask0_1_773" style="mask-type:luminance" maskUnits="userSpaceOnUse" x="16" y="11" width="9" height="18">
<path fill-rule="evenodd" clip-rule="evenodd" d="M23.1334 28.1873C22.7927 28.1873 22.4544 28.0392 22.2234 27.7522L16.5907 20.7522C16.243 20.3193 16.2477 19.701 16.6035 19.274L22.4369 12.274C22.8487 11.7793 23.5849 11.7128 24.0807 12.1247C24.5754 12.5365 24.6419 13.2727 24.2289 13.7673L19.008 20.0335L24.0422 26.2892C24.4459 26.7908 24.3665 27.5258 23.8637 27.9295C23.649 28.1033 23.39 28.1873 23.1334 28.1873Z" fill="white"/>
</mask>
<g mask="url(#mask0_1_773)">
<rect x="7" y="6.02066" width="28" height="28" fill="#5C85FF"/>
</g>
</svg>
