<svg width="42" height="41" viewBox="0 0 42 41" fill="none" xmlns="http://www.w3.org/2000/svg">
<rect x="-0.5" y="0.5" width="41" height="39.0018" rx="19.5009" transform="matrix(-1 0 0 1 41 0.0197754)" stroke="#5C85FF"/>
<path fill-rule="evenodd" clip-rule="evenodd" d="M18.8666 28.1873C19.2073 28.1873 19.5456 28.0392 19.7766 27.7522L25.4093 20.7522C25.757 20.3193 25.7523 19.701 25.3965 19.274L19.5631 12.274C19.1513 11.7793 18.4151 11.7128 17.9193 12.1247C17.4246 12.5365 17.3581 13.2727 17.7711 13.7673L22.992 20.0335L17.9578 26.2892C17.5541 26.7908 17.6335 27.5258 18.1363 27.9295C18.351 28.1033 18.61 28.1873 18.8666 28.1873Z" fill="#5C85FF"/>
<mask id="mask0_1_774" style="mask-type:luminance" maskUnits="userSpaceOnUse" x="17" y="11" width="9" height="18">
<path fill-rule="evenodd" clip-rule="evenodd" d="M18.8666 28.1873C19.2073 28.1873 19.5456 28.0392 19.7766 27.7522L25.4093 20.7522C25.757 20.3193 25.7523 19.701 25.3965 19.274L19.5631 12.274C19.1513 11.7793 18.4151 11.7128 17.9193 12.1247C17.4246 12.5365 17.3581 13.2727 17.7711 13.7673L22.992 20.0335L17.9578 26.2892C17.5541 26.7908 17.6335 27.5258 18.1363 27.9295C18.351 28.1033 18.61 28.1873 18.8666 28.1873Z" fill="white"/>
</mask>
<g mask="url(#mask0_1_774)">
<rect width="28" height="28" transform="matrix(-1 0 0 1 35 6.02066)" fill="#5C85FF"/>
</g>
</svg>
